<?xml version="1.0" standalone="no"?>
<!DOCTYPE svg PUBLIC "-//W3C//DTD SVG 20010904//EN"
 "http://www.w3.org/TR/2001/REC-SVG-20010904/DTD/svg10.dtd">
<svg version="1.0" xmlns="http://www.w3.org/2000/svg"
 width="512.000000pt" height="512.000000pt" viewBox="0 0 512.000000 512.000000"
 preserveAspectRatio="xMidYMid meet">

<g transform="translate(0.000000,512.000000) scale(0.100000,-0.100000)"
fill="#ffffff" stroke="none">
<path d="M2396 5110 c-479 -61 -889 -349 -1104 -776 -53 -105 -97 -233 -124
-357 -31 -145 -31 -419 0 -559 41 -189 121 -374 225 -528 73 -107 263 -294
372 -366 165 -109 342 -183 532 -221 122 -24 404 -24 526 0 292 59 526 185
738 396 205 206 328 433 391 720 31 141 31 415 0 558 -124 572 -550 999 -1115
1114 -115 23 -333 33 -441 19z m402 -214 c241 -52 450 -165 622 -336 93 -92
201 -245 249 -352 257 -574 50 -1234 -489 -1558 -95 -57 -205 -102 -340 -138
-85 -23 -115 -25 -275 -26 -157 0 -192 3 -275 23 -425 106 -750 400 -885 803
-174 522 17 1087 473 1396 132 91 321 167 467 191 39 6 81 13 95 15 51 9 288
-3 358 -18z"/>
<path d="M2494 4746 c-32 -32 -34 -38 -34 -99 0 -79 11 -110 46 -133 42 -28
93 -22 126 15 25 28 28 39 28 101 0 81 -13 116 -51 136 -45 23 -78 17 -115
-20z"/>
<path d="M3200 4474 c-14 -9 -163 -154 -332 -323 l-307 -305 -189 186 c-115
114 -198 189 -215 193 -76 19 -141 -46 -122 -122 9 -38 460 -489 497 -498 16
-4 40 -4 55 0 31 7 724 690 749 737 48 90 -52 187 -136 132z"/>
<path d="M1531 3786 c-47 -26 -63 -84 -36 -135 20 -40 62 -54 146 -49 63 3 74
7 95 31 35 41 33 100 -5 138 -27 27 -35 29 -103 29 -41 -1 -83 -6 -97 -14z"/>
<path d="M3408 3785 c-57 -32 -66 -108 -19 -156 27 -27 35 -29 106 -29 87 0
108 8 130 50 22 43 18 76 -14 112 -27 30 -34 33 -102 35 -52 2 -82 -1 -101
-12z"/>
<path d="M2489 2871 c-27 -27 -29 -35 -29 -100 0 -86 11 -116 49 -136 37 -19
64 -19 100 -1 37 19 51 55 51 127 0 97 -32 139 -105 139 -27 0 -44 -8 -66 -29z"/>
<path d="M4554 5086 l-34 -34 0 -102 0 -102 34 -34 c25 -24 43 -34 66 -34 23
0 42 10 66 34 l34 34 0 102 0 102 -34 34 c-24 25 -43 34 -66 34 -23 0 -41 -9
-66 -34z"/>
<path d="M4154 4686 c-37 -37 -43 -70 -20 -115 21 -40 56 -51 161 -51 90 0 96
1 127 29 27 24 33 36 33 71 0 35 -6 47 -33 71 -31 28 -36 29 -133 29 l-101 0
-34 -34z"/>
<path d="M4818 4691 c-27 -24 -33 -36 -33 -71 0 -35 6 -47 33 -71 31 -28 37
-29 127 -29 105 0 140 11 161 51 23 45 17 78 -20 115 l-34 34 -101 0 c-97 0
-102 -1 -133 -29z"/>
<path d="M4584 4451 c-12 -5 -31 -22 -43 -37 -18 -23 -21 -40 -21 -120 0 -104
11 -139 51 -160 52 -27 115 -8 137 41 7 14 12 68 12 120 0 89 -2 96 -27 125
-30 32 -75 45 -109 31z"/>
<path d="M434 3026 l-34 -34 0 -102 0 -102 34 -34 c25 -24 43 -34 66 -34 23 0
42 10 66 34 l34 34 0 102 0 102 -34 34 c-24 25 -43 34 -66 34 -23 0 -41 -9
-66 -34z"/>
<path d="M34 2626 c-37 -37 -43 -70 -20 -115 21 -40 56 -51 161 -51 90 0 96 1
127 29 27 24 33 36 33 71 0 35 -6 47 -33 71 -31 28 -36 29 -133 29 l-101 0
-34 -34z"/>
<path d="M698 2631 c-27 -24 -33 -36 -33 -71 0 -35 6 -47 33 -71 31 -28 37
-29 127 -29 105 0 140 11 161 51 23 45 17 78 -20 115 l-34 34 -101 0 c-97 0
-102 -1 -133 -29z"/>
<path d="M464 2391 c-12 -5 -31 -22 -43 -37 -18 -23 -21 -40 -21 -120 0 -104
11 -139 51 -160 52 -27 115 -8 137 41 7 14 12 68 12 120 0 89 -2 96 -27 125
-30 32 -75 45 -109 31z"/>
<path d="M4398 2362 c-31 -11 -71 -29 -90 -42 -18 -13 -198 -188 -400 -389
-308 -306 -368 -362 -368 -340 0 40 -57 144 -100 183 -21 19 -57 44 -79 55
-21 11 -275 79 -563 152 -570 142 -636 153 -783 130 -125 -20 -198 -51 -527
-221 -172 -89 -314 -158 -316 -153 -1 4 -18 33 -36 63 -43 72 -84 100 -149
100 -47 0 -71 -12 -356 -176 -168 -97 -316 -185 -328 -197 -36 -33 -57 -100
-46 -144 12 -47 734 -1297 771 -1336 35 -37 93 -54 140 -41 49 13 631 348 659
380 28 30 46 96 38 134 -3 15 -137 254 -296 530 -160 277 -287 506 -282 510 4
4 152 80 328 169 475 241 420 238 1125 62 267 -66 504 -130 528 -141 32 -15
48 -31 62 -63 25 -54 25 -71 -1 -124 -14 -30 -33 -50 -60 -63 -36 -19 -60 -20
-434 -20 -430 0 -439 -1 -463 -55 -20 -44 -14 -75 22 -111 l35 -35 473 3 473
3 55 24 c47 21 120 88 520 486 493 490 498 494 576 482 79 -13 143 -85 144
-160 0 -66 -29 -100 -458 -531 -473 -474 -542 -538 -640 -589 -132 -69 -134
-70 -675 -76 l-489 -6 -19 -24 c-40 -50 -34 -109 15 -145 27 -21 38 -21 504
-21 421 0 486 2 552 18 92 21 206 70 285 122 72 46 1021 988 1065 1055 149
231 -8 539 -281 556 -55 3 -88 -1 -131 -14z m-3083 -1271 c258 -447 334 -586
323 -592 -7 -5 -42 -25 -77 -45 -52 -30 -65 -34 -75 -23 -7 8 -66 106 -130
219 -65 113 -127 213 -138 223 -12 10 -37 17 -60 17 -52 0 -98 -43 -98 -92 0
-31 62 -148 233 -439 l27 -45 -82 -48 c-66 -38 -83 -45 -93 -34 -16 17 -662
1139 -667 1156 -3 15 482 303 493 293 4 -3 159 -269 344 -590z"/>
<path d="M914 1230 c-31 -12 -54 -49 -54 -88 0 -44 14 -68 50 -87 43 -22 76
-18 112 14 84 75 -2 204 -108 161z"/>
<path d="M1995 796 c-66 -66 -23 -170 71 -170 49 0 94 48 94 100 0 81 -108
127 -165 70z"/>
</g>
</svg>
