<?xml version="1.0" standalone="no"?>
<!DOCTYPE svg PUBLIC "-//W3C//DTD SVG 20010904//EN"
 "http://www.w3.org/TR/2001/REC-SVG-20010904/DTD/svg10.dtd">
<svg version="1.0" xmlns="http://www.w3.org/2000/svg"
 width="512.000000pt" height="512.000000pt" viewBox="0 0 512.000000 512.000000"
 preserveAspectRatio="xMidYMid meet">

<g transform="translate(0.000000,512.000000) scale(0.100000,-0.100000)"
fill="#000000" stroke="none">
<path d="M2512 5103 c-11 -10 -172 -205 -358 -433 -185 -228 -344 -423 -352
-433 -24 -28 -20 -86 7 -108 21 -17 42 -19 212 -19 l189 0 0 -600 c0 -418 3
-606 11 -623 20 -44 43 -47 339 -47 296 0 319 3 339 47 8 17 11 205 11 623 l0
600 189 0 c170 0 191 2 212 19 27 22 31 80 7 108 -8 10 -167 205 -352 433
-186 228 -347 423 -358 433 -11 9 -33 17 -48 17 -15 0 -37 -8 -48 -17z"/>
<path d="M1037 3938 c-53 -49 -557 -680 -557 -698 0 -32 21 -67 47 -79 13 -6
80 -11 153 -11 l130 0 0 -459 0 -460 26 -20 c25 -20 39 -21 259 -21 214 0 235
2 256 19 l24 19 3 461 3 461 133 0 c120 0 136 2 160 21 20 16 26 29 26 58 0
34 -23 66 -256 352 -141 173 -270 329 -287 347 -38 39 -84 43 -120 10z"/>
<path d="M3963 3928 c-17 -18 -146 -174 -287 -347 -233 -286 -256 -318 -256
-352 0 -29 6 -42 26 -58 24 -19 40 -21 160 -21 l133 0 3 -461 3 -461 24 -19
c21 -17 42 -19 256 -19 220 0 234 1 259 21 l26 20 0 460 0 459 130 0 c73 0
140 5 153 11 26 12 47 47 47 79 0 18 -504 649 -557 698 -36 33 -82 29 -120
-10z"/>
<path d="M2410 2675 c-8 -2 -49 -9 -90 -15 -109 -18 -268 -73 -380 -131 -358
-187 -610 -524 -697 -929 -25 -119 -25 -401 0 -518 24 -107 67 -234 112 -327
113 -235 327 -461 555 -585 533 -290 1170 -201 1595 225 191 190 312 415 372
687 25 117 25 399 0 518 -113 528 -506 930 -1027 1051 -61 15 -133 21 -255 24
-93 2 -177 2 -185 0z m208 -351 c19 -22 22 -36 22 -109 l0 -84 58 -16 c85 -25
146 -62 207 -126 62 -65 100 -138 116 -224 12 -67 7 -97 -23 -125 -54 -50
-121 -9 -132 82 -13 103 -94 201 -195 236 l-31 11 0 -278 0 -278 38 -7 c61 -9
159 -64 217 -120 64 -63 111 -153 127 -243 35 -206 -115 -422 -332 -478 l-45
-11 -5 -93 c-4 -82 -8 -95 -29 -112 -30 -24 -72 -24 -102 0 -21 17 -25 30 -29
112 l-5 93 -45 11 c-161 42 -290 172 -325 330 -19 84 -14 128 18 150 50 35
127 1 127 -55 0 -58 31 -132 77 -181 41 -44 112 -89 141 -89 9 0 12 70 12 274
l0 274 -47 12 c-167 42 -305 189 -334 358 -36 201 109 417 320 476 l61 17 0
82 c0 88 13 121 54 137 29 12 57 3 84 -26z"/>
<path d="M2412 1939 c-187 -93 -213 -326 -49 -450 27 -20 64 -41 83 -47 l34
-10 0 269 c0 148 -2 269 -3 269 -2 0 -31 -14 -65 -31z"/>
<path d="M2640 986 c0 -198 3 -266 12 -266 29 0 100 45 141 89 44 47 77 122
77 176 0 105 -96 225 -207 259 l-23 7 0 -265z"/>
</g>
</svg>
