<?xml version="1.0" standalone="no"?>
<!DOCTYPE svg PUBLIC "-//W3C//DTD SVG 20010904//EN"
 "http://www.w3.org/TR/2001/REC-SVG-20010904/DTD/svg10.dtd">
<svg version="1.0" xmlns="http://www.w3.org/2000/svg"
 width="512.000000pt" height="512.000000pt" viewBox="0 0 512.000000 512.000000"
 preserveAspectRatio="xMidYMid meet">

<g transform="translate(0.000000,512.000000) scale(0.100000,-0.100000)"
fill="#ffffff" stroke="none">
<path d="M2315 5109 c-771 -79 -1456 -493 -1889 -1139 -87 -129 -216 -384
-272 -535 -47 -129 -107 -367 -130 -520 -26 -168 -26 -541 0 -710 23 -151 83
-391 131 -521 57 -154 175 -387 264 -521 l81 -122 0 -500 0 -500 26 -20 c15
-12 34 -21 43 -21 9 0 213 56 453 125 l437 125 83 -36 c176 -75 467 -164 539
-164 64 0 99 76 57 123 -18 22 -49 33 -159 61 -143 36 -281 85 -407 142 -41
19 -88 34 -104 34 -16 0 -202 -50 -413 -110 -211 -61 -387 -110 -389 -110 -3
0 -7 206 -8 458 l-3 457 -89 130 c-151 219 -270 489 -336 757 -52 211 -64 322
-64 568 0 246 12 357 64 568 214 874 888 1548 1762 1762 211 52 322 64 568 64
246 0 357 -12 568 -64 654 -160 1198 -575 1530 -1165 135 -240 235 -541 279
-834 24 -160 24 -502 0 -662 -113 -756 -551 -1396 -1212 -1767 -313 -175 -688
-281 -1063 -299 -124 -6 -138 -8 -159 -29 -32 -32 -30 -78 3 -111 l26 -26 139
6 c246 11 457 50 691 127 540 178 1009 535 1330 1015 211 316 352 694 410
1100 17 118 17 512 0 630 -59 416 -191 769 -410 1099 -92 140 -185 254 -315
385 -399 403 -894 653 -1462 737 -123 18 -478 26 -600 13z"/>
<path d="M1748 3985 c-136 -23 -302 -90 -418 -168 -66 -45 -205 -183 -255
-252 -85 -118 -164 -308 -180 -430 -13 -100 -9 -95 -72 -95 -86 0 -132 -18
-188 -75 -69 -68 -75 -94 -75 -325 0 -231 6 -257 75 -325 56 -57 102 -75 187
-75 l55 0 5 -89 c10 -162 86 -279 226 -349 l76 -37 497 -3 497 -3 12 -30 c17
-41 90 -103 138 -117 51 -16 253 -15 306 0 86 26 166 136 166 228 0 92 -80
202 -166 228 -53 15 -255 16 -306 0 -48 -14 -121 -76 -138 -118 l-12 -30 -466
0 c-336 0 -476 3 -506 12 -55 16 -138 99 -154 154 -7 23 -12 92 -12 153 0 105
-1 113 -25 136 -23 24 -31 25 -135 25 -104 0 -112 1 -135 25 -25 24 -25 26
-25 215 0 189 0 191 25 215 20 21 34 25 80 25 l55 0 0 -135 c0 -131 1 -137 25
-160 15 -16 36 -25 55 -25 19 0 40 9 55 25 25 24 25 25 25 233 0 239 14 343
61 461 105 262 318 453 599 534 74 21 90 21 818 25 822 3 850 2 1001 -59 320
-128 533 -419 558 -764 9 -128 17 -135 163 -135 104 0 112 -1 135 -25 25 -24
25 -26 25 -215 0 -189 0 -191 -25 -215 -20 -21 -34 -25 -80 -25 l-55 0 0 135
c0 131 -1 137 -25 160 -29 30 -74 32 -106 6 l-24 -19 -6 -339 c-5 -332 -6
-339 -33 -428 -99 -327 -365 -563 -695 -620 -77 -14 -197 -15 -833 -13 l-743
3 -90 28 c-158 50 -299 135 -401 243 -36 38 -48 44 -81 44 -50 0 -77 -27 -77
-76 0 -29 10 -45 65 -100 124 -125 292 -221 477 -272 l97 -27 800 0 c796 0
800 0 878 22 271 77 479 223 620 434 112 169 165 332 174 537 l6 122 57 0 c85
0 142 24 193 80 24 26 49 66 55 88 16 54 16 411 0 466 -16 55 -99 138 -154
154 -23 7 -67 12 -97 12 -63 0 -59 -5 -72 95 -17 125 -102 327 -188 440 -167
222 -405 367 -672 410 -123 20 -1498 20 -1617 0z m867 -2090 c16 -15 25 -36
25 -55 0 -19 -9 -40 -25 -55 -23 -24 -31 -25 -135 -25 -104 0 -112 1 -135 25
-16 15 -25 36 -25 55 0 19 9 40 25 55 23 24 31 25 135 25 104 0 112 -1 135
-25z"/>
<path d="M1805 3348 c-27 -5 -87 -27 -132 -49 -343 -165 -418 -625 -146 -894
76 -76 190 -137 287 -154 82 -15 1410 -15 1492 0 99 18 213 79 289 156 218
220 218 569 -1 787 -75 76 -190 138 -288 155 -37 7 -231 11 -498 11 l-439 0
-24 -25 c-30 -29 -32 -74 -6 -106 l19 -24 469 -5 468 -5 67 -32 c93 -44 151
-100 196 -191 35 -72 37 -81 37 -172 0 -91 -2 -100 -37 -172 -45 -91 -103
-147 -196 -191 l-67 -32 -735 0 -735 0 -67 32 c-93 44 -151 100 -196 191 -35
72 -37 81 -37 171 0 87 3 102 32 163 44 92 100 151 190 195 74 37 77 37 225
43 142 5 151 6 169 29 26 32 24 77 -6 106 -23 24 -29 25 -152 24 -70 -1 -150
-5 -178 -11z"/>
<path d="M1920 3027 c-49 -16 -133 -102 -148 -153 -28 -94 -8 -169 63 -239
101 -102 229 -102 330 0 102 101 102 229 0 330 -70 71 -152 91 -245 62z m135
-172 c50 -49 15 -135 -55 -135 -41 0 -80 39 -80 80 0 41 39 80 80 80 19 0 40
-9 55 -25z"/>
<path d="M3040 3027 c-49 -16 -133 -102 -148 -153 -28 -94 -8 -169 63 -239
102 -103 243 -101 338 5 93 103 90 228 -8 325 -70 71 -152 91 -245 62z m135
-172 c16 -15 25 -36 25 -55 0 -19 -9 -40 -25 -55 -15 -16 -36 -25 -55 -25 -19
0 -40 9 -55 25 -16 15 -25 36 -25 55 0 19 9 40 25 55 15 16 36 25 55 25 19 0
40 -9 55 -25z"/>
</g>
</svg>
