<?xml version="1.0" standalone="no"?>
<!DOCTYPE svg PUBLIC "-//W3C//DTD SVG 20010904//EN"
 "http://www.w3.org/TR/2001/REC-SVG-20010904/DTD/svg10.dtd">
<svg version="1.0" xmlns="http://www.w3.org/2000/svg"
 width="512.000000pt" height="512.000000pt" viewBox="0 0 512.000000 512.000000"
 preserveAspectRatio="xMidYMid meet">

<g transform="translate(0.000000,512.000000) scale(0.100000,-0.100000)"
fill="#ffffff" stroke="none">
<path d="M1992 5103 c-18 -9 -41 -28 -51 -42 -25 -36 -1031 -2860 -1031 -2894
0 -42 36 -104 73 -124 30 -17 88 -18 762 -23 l731 -5 -182 -920 c-101 -506
-183 -934 -183 -950 -2 -70 74 -144 147 -145 54 0 96 26 144 93 160 219 1980
2792 1994 2818 21 41 14 106 -14 147 -46 64 -25 62 -727 62 -530 0 -636 2
-632 13 3 8 215 395 471 861 538 978 516 936 516 976 0 50 -35 107 -80 130
-38 20 -57 20 -972 20 -839 0 -936 -2 -966 -17z"/>
<path d="M4485 5106 c-16 -7 -38 -22 -48 -33 -10 -12 -144 -249 -299 -529
-297 -540 -307 -563 -278 -634 38 -91 172 -118 238 -47 18 19 492 869 568
1019 15 29 24 65 24 91 0 105 -109 175 -205 133z"/>
<path d="M1023 4201 c-18 -11 -39 -33 -47 -49 -29 -55 -666 -1852 -666 -1877
0 -36 23 -86 53 -113 53 -49 151 -45 202 8 21 22 100 233 356 949 197 551 329
935 329 957 0 41 -18 80 -54 113 -37 35 -127 41 -173 12z"/>
<path d="M4605 2636 c-43 -19 -62 -42 -260 -321 -204 -285 -213 -305 -174
-381 42 -81 138 -109 210 -61 41 27 415 548 425 590 15 68 -27 146 -93 173
-40 17 -69 17 -108 0z"/>
<path d="M1860 1701 c-19 -10 -43 -29 -53 -43 -14 -18 -51 -187 -133 -594 -63
-312 -114 -581 -114 -596 0 -82 62 -143 147 -143 55 0 90 18 125 66 24 32 251
1160 243 1206 -3 18 -17 46 -32 63 -51 61 -118 76 -183 41z"/>
<path d="M3645 1301 c-34 -18 -86 -86 -360 -478 -467 -666 -435 -617 -435
-669 0 -52 19 -94 56 -123 56 -44 146 -36 196 16 36 39 738 1041 749 1070 48
126 -86 245 -206 184z"/>
</g>
</svg>
