<?xml version="1.0" standalone="no"?>
<!DOCTYPE svg PUBLIC "-//W3C//DTD SVG 20010904//EN"
 "http://www.w3.org/TR/2001/REC-SVG-20010904/DTD/svg10.dtd">
<svg version="1.0" xmlns="http://www.w3.org/2000/svg"
 width="512.000000pt" height="512.000000pt" viewBox="0 0 512.000000 512.000000"
 preserveAspectRatio="xMidYMid meet">

<g transform="translate(0.000000,512.000000) scale(0.100000,-0.100000)"
fill="#4a0f6f" stroke="none">
<path d="M2398 5104 c-395 -71 -695 -374 -763 -772 -14 -77 -15 -222 -13
-1058 3 -962 3 -970 25 -1046 95 -335 333 -581 649 -673 167 -48 361 -48 528
0 316 92 554 338 649 673 22 76 22 84 25 1046 3 1053 3 1059 -53 1218 -74 213
-235 402 -436 512 -182 100 -408 137 -611 100z m367 -214 c245 -76 423 -254
506 -505 23 -69 23 -80 27 -552 l3 -483 -741 0 -741 0 3 483 c4 472 4 483 27
552 92 279 311 475 589 525 78 15 248 4 327 -20z m532 -2152 c-4 -457 -4 -462
-73 -605 -90 -189 -275 -341 -481 -394 -106 -27 -260 -27 -366 0 -206 53 -391
205 -481 394 -69 143 -69 148 -73 605 l-4 412 741 0 741 0 -4 -412z"/>
<path d="M2275 4368 c-74 -40 -73 -139 2 -177 14 -7 110 -11 283 -11 173 0
269 4 283 11 75 39 75 139 0 178 -30 15 -540 15 -568 -1z"/>
<path d="M2293 4003 c-12 -2 -33 -16 -47 -30 -38 -37 -36 -95 3 -134 l29 -29
282 0 282 0 29 29 c57 57 28 149 -52 165 -34 7 -490 6 -526 -1z"/>
<path d="M2944 2891 c-32 -14 -64 -60 -64 -92 0 -17 11 -41 29 -61 60 -67 166
-28 166 62 0 66 -72 116 -131 91z"/>
<path d="M2927 2539 c-25 -15 -43 -57 -51 -119 -20 -152 -128 -259 -285 -281
-77 -11 -103 -26 -121 -68 -15 -38 -7 -75 25 -107 20 -20 34 -24 88 -24 231 0
452 198 489 438 13 80 6 114 -27 148 -26 26 -84 32 -118 13z"/>
<path d="M64 4570 c-12 -4 -31 -21 -43 -36 l-21 -27 0 -854 c0 -610 3 -861 11
-876 31 -60 106 -76 152 -33 14 13 29 35 32 48 3 12 4 407 3 876 l-3 854 -33
29 c-33 29 -60 35 -98 19z"/>
<path d="M4984 4570 c-12 -4 -31 -21 -43 -36 l-21 -27 0 -854 c0 -610 3 -861
11 -876 31 -60 106 -76 152 -33 14 13 29 35 32 48 3 12 4 407 3 876 l-3 854
-33 29 c-33 29 -60 35 -98 19z"/>
<path d="M874 4283 c-12 -2 -32 -15 -45 -29 l-24 -26 -3 -701 c-3 -737 -2
-742 42 -772 26 -19 86 -19 112 0 44 30 45 35 42 772 l-3 703 -25 24 c-26 25
-61 35 -96 29z"/>
<path d="M4194 4283 c-12 -2 -32 -15 -45 -29 l-24 -26 -3 -500 -3 -499 35 -35
c24 -24 43 -34 66 -34 23 0 42 10 66 34 l35 35 -3 500 -3 501 -25 24 c-26 25
-61 35 -96 29z"/>
<path d="M433 4156 l-28 -24 -3 -527 -3 -526 35 -35 c24 -24 43 -34 66 -34 23
0 42 10 66 34 l35 35 -3 526 -3 527 -28 24 c-19 16 -40 24 -67 24 -27 0 -48
-8 -67 -24z"/>
<path d="M4553 4156 l-28 -24 -3 -527 -3 -526 35 -35 c24 -24 43 -34 66 -34
23 0 42 10 66 34 l35 35 -3 526 -3 527 -28 24 c-19 16 -40 24 -67 24 -27 0
-48 -8 -67 -24z"/>
<path d="M1233 3906 l-28 -24 -3 -277 -3 -276 35 -35 c24 -24 43 -34 66 -34
23 0 42 10 66 34 l35 35 -3 276 -3 277 -28 24 c-19 16 -40 24 -67 24 -27 0
-48 -8 -67 -24z"/>
<path d="M3753 3906 l-28 -24 -3 -277 -3 -276 35 -35 c24 -24 43 -34 66 -34
23 0 42 10 66 34 l35 35 -3 276 -3 277 -28 24 c-19 16 -40 24 -67 24 -27 0
-48 -8 -67 -24z"/>
<path d="M4155 2906 c-32 -32 -40 -69 -25 -107 17 -39 46 -59 90 -59 44 0 73
20 90 59 26 64 -20 131 -90 131 -30 0 -47 -6 -65 -24z"/>
<path d="M1227 2539 c-48 -28 -58 -108 -32 -277 27 -183 88 -358 176 -503 184
-306 441 -511 779 -620 l115 -37 0 -248 0 -249 -54 -7 c-218 -32 -375 -164
-435 -367 -32 -110 -18 -190 41 -220 31 -16 1455 -16 1486 0 59 30 73 110 41
220 -60 203 -217 335 -435 367 l-54 7 0 249 0 248 115 37 c516 166 875 588
955 1123 32 213 10 288 -85 288 -65 0 -100 -45 -100 -127 0 -82 -28 -240 -60
-333 -152 -457 -556 -774 -1027 -809 -548 -40 -1039 287 -1213 809 -32 93 -60
251 -60 333 0 53 -20 101 -49 117 -25 13 -81 12 -104 -1z m1423 -1700 l0 -239
-90 0 -90 0 0 239 0 239 90 0 90 0 0 -239z m345 -471 c65 -34 145 -120 145
-155 0 -10 -116 -13 -580 -13 -623 0 -599 -2 -563 50 45 68 110 118 183 141
14 4 192 7 395 6 l370 -2 50 -27z"/>
</g>
</svg>
