<?xml version="1.0" standalone="no"?>
<!DOCTYPE svg PUBLIC "-//W3C//DTD SVG 20010904//EN"
 "http://www.w3.org/TR/2001/REC-SVG-20010904/DTD/svg10.dtd">
<svg version="1.0" xmlns="http://www.w3.org/2000/svg"
 width="512.000000pt" height="512.000000pt" viewBox="0 0 512.000000 512.000000"
 preserveAspectRatio="xMidYMid meet">

<g transform="translate(0.000000,512.000000) scale(0.100000,-0.100000)"
fill="#ffffff" stroke="none">
<path d="M265 5041 c-74 -19 -131 -67 -164 -141 -20 -43 -21 -63 -20 -570 0
-401 3 -533 13 -561 20 -57 64 -106 119 -134 l51 -25 370 0 370 0 161 -160
c142 -140 165 -160 194 -160 21 0 41 9 56 25 24 23 25 29 25 160 l0 135 268 0
c267 0 268 0 319 25 28 15 63 41 78 60 55 73 55 74 55 639 0 503 -1 523 -21
566 -25 55 -62 95 -114 123 l-40 22 -845 2 c-465 1 -858 -2 -875 -6z m1688
-162 c14 -6 30 -22 36 -36 8 -16 11 -179 11 -524 l0 -500 -25 -24 -24 -25
-300 0 c-199 0 -308 -4 -324 -11 -35 -16 -47 -49 -47 -127 l0 -67 -92 92 c-51
50 -103 96 -115 102 -15 7 -143 11 -403 11 l-381 0 -24 25 -25 24 0 500 c0
346 3 508 11 525 6 13 21 29 33 34 31 15 1637 16 1669 1z"/>
<path d="M400 4650 l0 -80 720 0 720 0 0 80 0 80 -720 0 -720 0 0 -80z"/>
<path d="M560 4330 l0 -80 560 0 560 0 0 80 0 80 -560 0 -560 0 0 -80z"/>
<path d="M400 4010 l0 -80 720 0 720 0 0 80 0 80 -720 0 -720 0 0 -80z"/>
<path d="M3145 4721 c-74 -19 -131 -67 -164 -141 -20 -43 -21 -63 -20 -570 0
-401 3 -533 13 -561 20 -57 64 -106 119 -134 51 -25 52 -25 319 -25 l268 0 0
-135 c0 -131 1 -137 25 -160 15 -16 35 -25 56 -25 29 0 52 20 194 160 l161
160 370 0 370 0 51 25 c28 15 63 41 78 60 55 73 55 74 55 639 0 503 -1 523
-21 566 -25 55 -62 95 -114 123 l-40 22 -845 2 c-465 1 -858 -2 -875 -6z
m1688 -162 c14 -6 30 -22 36 -36 8 -16 11 -179 11 -524 l0 -500 -25 -24 -24
-25 -381 0 c-260 0 -388 -4 -403 -11 -12 -6 -64 -52 -114 -102 l-93 -92 0 67
c0 78 -12 111 -47 127 -16 7 -125 11 -324 11 l-300 0 -24 25 -25 24 0 500 c0
346 3 508 11 525 6 13 21 29 33 34 31 15 1637 16 1669 1z"/>
<path d="M3280 4330 l0 -80 720 0 720 0 0 80 0 80 -720 0 -720 0 0 -80z"/>
<path d="M3440 4010 l0 -80 560 0 560 0 0 80 0 80 -560 0 -560 0 0 -80z"/>
<path d="M3280 3690 l0 -80 720 0 720 0 0 80 0 80 -720 0 -720 0 0 -80z"/>
<path d="M2487 3920 c-92 -24 -178 -96 -219 -185 -33 -73 -32 -191 1 -260 33
-65 96 -127 160 -156 l51 -24 0 -82 0 -83 -325 0 c-216 0 -332 -4 -348 -11
-39 -18 -47 -50 -47 -184 l0 -125 -209 0 c-114 0 -233 -5 -262 -10 -127 -24
-236 -109 -292 -228 -31 -66 -32 -70 -35 -233 l-4 -167 -151 -4 c-131 -3 -158
-7 -192 -25 -52 -28 -89 -67 -114 -123 -20 -43 -21 -63 -20 -570 0 -401 3
-533 13 -561 20 -57 64 -106 119 -134 48 -23 60 -25 199 -25 l148 0 0 -143 c0
-163 14 -236 61 -309 42 -64 110 -125 177 -156 l57 -27 1305 0 1305 0 57 27
c67 31 135 92 177 156 47 73 61 146 61 309 l0 143 148 0 c139 0 151 2 199 25
28 15 63 41 78 60 55 73 55 74 55 639 0 503 -1 523 -21 566 -25 56 -62 95
-114 123 -34 18 -61 22 -192 25 l-153 4 0 142 c0 86 -5 161 -14 191 -41 155
-159 265 -316 295 -29 5 -147 10 -261 10 l-209 0 0 125 c0 134 -8 166 -47 184
-16 7 -132 11 -348 11 l-325 0 0 84 0 83 45 18 c58 22 134 95 165 160 34 69
35 187 2 261 -28 63 -102 136 -164 164 -54 24 -148 33 -201 20z m143 -172
c148 -75 95 -298 -70 -298 -120 0 -197 132 -138 235 25 43 93 85 138 85 14 0
46 -10 70 -22z m570 -858 l0 -80 -640 0 -640 0 0 80 0 80 640 0 640 0 0 -80z
m665 -267 c52 -28 89 -68 114 -123 20 -44 21 -61 21 -1046 0 -1089 2 -1043
-55 -1119 -15 -19 -50 -45 -78 -60 l-51 -25 -1256 0 -1256 0 -51 25 c-55 28
-99 77 -119 134 -10 28 -13 249 -13 1041 -1 990 0 1006 20 1050 33 74 90 122
164 141 17 4 590 6 1275 6 l1245 -2 40 -22z m-2905 -1173 l0 -560 -135 0
c-131 0 -137 1 -160 25 l-25 24 0 500 c0 346 3 508 11 525 18 38 45 45 182 45
l127 1 0 -560z m3473 549 c14 -6 30 -22 36 -36 8 -16 11 -179 11 -524 l0 -500
-25 -24 c-23 -24 -29 -25 -160 -25 l-135 0 0 560 0 560 125 0 c69 0 135 -5
148 -11z"/>
<path d="M1687 2160 c-92 -24 -178 -96 -219 -185 -18 -39 -23 -68 -23 -130 0
-99 23 -154 92 -223 155 -155 415 -108 513 93 34 69 35 187 2 261 -28 63 -102
136 -164 164 -54 24 -148 33 -201 20z m143 -172 c148 -75 95 -298 -70 -298
-120 0 -197 132 -138 235 25 43 93 85 138 85 14 0 46 -10 70 -22z"/>
<path d="M3287 2160 c-92 -24 -178 -96 -219 -185 -18 -39 -23 -68 -23 -130 0
-99 23 -154 92 -223 155 -155 415 -108 513 93 34 69 35 187 2 261 -28 63 -102
136 -164 164 -54 24 -148 33 -201 20z m143 -172 c148 -75 95 -298 -70 -298
-120 0 -197 132 -138 235 25 43 93 85 138 85 14 0 46 -10 70 -22z"/>
<path d="M1803 1358 c-38 -18 -46 -59 -40 -181 8 -136 25 -205 82 -322 98
-202 270 -346 495 -417 64 -20 96 -23 220 -23 124 0 156 3 220 23 225 71 401
221 500 426 52 109 70 180 77 313 7 125 -2 163 -43 182 -34 15 -1479 14 -1511
-1z m1397 -180 c-1 -120 -74 -294 -165 -395 -124 -138 -292 -213 -475 -213
-183 0 -351 75 -475 213 -91 101 -164 275 -165 395 l0 32 640 0 640 0 0 -32z"/>
</g>
</svg>
